{"title":"Min.Bedste.Fjende.2010.DVDRiP.XViD-RCDiVX","uid":6624466,"size":730753024,"categoryP":"video","categoryS":"movies","magnet":"?xt=urn:btih:fefcaa5fef4dfc652d656c557a6e09b359711cce&amp;dn=Min.Bedste.Fjende.2010.DVDRiP.XViD-RCDiVX&amp;tr=udp%3A%2F%2Ftracker.openbittorrent.com%3A80&amp;tr=udp%3A%2F%2Fopen.demonii.com%3A1337&amp;tr=udp%3A%2F%2Ftracker.coppersurfer.tk%3A6969&amp;tr=udp%3A%2F%2Fexodus.desync.com%3A6969","seeders":1,"leechers":0,"uploader":"FatFreddy255","files":1,"time":1314105239,"description":"Min bedste fjende\nCountry:\nDenmark \nLanguage:\nDanish \nAlso Known As:\nMy Good Enemy\nDirector: \nOliver Ussing\nStars:\nNikolaj Stovring Hansen, Rasmus Lind Rubin and Clara Bruun Sandbye \n\nMin.Bedste.Fjende.2010.DVDRiP.XViD-RCDiVX\nFormat                           : AVI\nFormat/Info                      : Audio Video Interleave\nFile size                        : 697 MiB\nDuration                         : 1h 28mn\nOverall bit rate                 : 1 096 Kbps\nWriting application              : VirtualDubMod 1.5.10.2 (build 2540/release)\nWriting library                  : VirtualDubMod build 2540/release\n\nVideo\nID                               : 0\nFormat                           : MPEG-4 Visual\nFormat profile                   : Advanced Simple@L5\nFormat settings, BVOP            : 2\nFormat settings, QPel            : No\nFormat settings, GMC             : No warppoints\nFormat settings, Matrix          : Default (H.263)\nMuxing mode                      : Packed bitstream\nCodec ID                         : XVID\nCodec ID/Hint                    : XviD\nDuration                         : 1h 28mn\nBit rate                         : 961 Kbps\nWidth                            : 640 pixels\nHeight                           : 256 pixels\nDisplay aspect ratio             : 2.500\nFrame rate                       : 25.000 fps\nColor space                      : YUV\nChroma subsampling               : 4:2:0\nBit depth                        : 8 bits\nScan type                        : Progressive\nCompression mode                 : Lossy\nBits/(Pixel*Frame)               : 0.235\nStream size                      : 611 MiB (88%)\nWriting library                  : XviD 1.2.1 (UTC 2008-12-04)\n\nAudio\nID                               : 1\nFormat                           : MPEG Audio\nFormat version                   : Version 1\nFormat profile                   : Layer 3\nMode                             : Joint stereo\nMode extension                   : MS Stereo\nCodec ID                         : 55\nCodec ID/Hint                    : MP3\nDuration                         : 1h 28mn\nBit rate mode                    : Variable\nBit rate                         : 128 Kbps\nChannel(s)                       : 2 channels\nSampling rate                    : 48.0 KHz\nCompression mode                 : Lossy\nStream size                      : 77.7 MiB (11%)\nAlignment                        : Aligned on interleaves\nInterleave, duration             : 24 ms (0.60 video frame)\nInterleave, preload duration     : 496 ms\nWriting library                  : LAME3.97 \n\n","torrent":{"xt":"urn:btih:fefcaa5fef4dfc652d656c557a6e09b359711cce","amp;dn":"Min.Bedste.Fjende.2010.DVDRiP.XViD-RCDiVX","amp;tr":["udp%3A%2F%2Ftracker.openbittorrent.com%3A80","udp%3A%2F%2Fopen.demonii.com%3A1337","udp%3A%2F%2Ftracker.coppersurfer.tk%3A6969","udp%3A%2F%2Fexodus.desync.com%3A6969"],"infoHash":"fefcaa5fef4dfc652d656c557a6e09b359711cce","infoHashBuffer":{"type":"Buffer","data":[254,252,170,95,239,77,252,101,45,101,108,85,122,110,9,179,89,113,28,206]},"announce":[],"urlList":[]}}